<svg width="172" height="288" viewBox="0 0 172 288" fill="none" xmlns="http://www.w3.org/2000/svg">
<path d="M171.53 220.235C171.53 257.661 141.19 288 103.765 288H2.11769V237.176C2.11769 190.395 40.0418 152.471 86.8236 152.471H103.765C141.19 152.471 171.53 182.81 171.53 220.235V220.235Z" fill="#B1DFDC"/>
<path d="M67.7647 -2.96209e-06C30.3393 -1.32617e-06 1.32617e-06 30.3393 2.96209e-06 67.7648L7.40523e-06 169.412L50.8236 169.412C97.6054 169.412 135.529 131.488 135.529 84.7059L135.529 67.7648C135.529 30.3394 105.19 -4.59801e-06 67.7647 -2.96209e-06V-2.96209e-06Z" fill="#F4B941"/>
</svg>
