<svg width="41" height="41" viewBox="0 0 41 41" fill="none" xmlns="http://www.w3.org/2000/svg">
<path d="M27.9 27.9C27.9 27.9 25.125 24.2 20.5 24.2C15.875 24.2 13.1 27.9 13.1 27.9M29.75 15.394C29.0193 16.2912 28.0203 16.8 26.975 16.8C25.9298 16.8 24.9585 16.2912 24.2 15.394M16.8 15.394C16.0693 16.2912 15.0703 16.8 14.025 16.8C12.9798 16.8 12.0085 16.2912 11.25 15.394M39 20.5C39 30.7173 30.7173 39 20.5 39C10.2827 39 2 30.7173 2 20.5C2 10.2827 10.2827 2 20.5 2C30.7173 2 39 10.2827 39 20.5Z" stroke="#41A8BB" stroke-width="3" stroke-linecap="round" stroke-linejoin="round"/>
</svg>
