<svg width="41" height="41" viewBox="0 0 41 41" fill="none" xmlns="http://www.w3.org/2000/svg">
<path d="M18.9028 2.54006C19.4857 2.24432 19.7772 2.09645 20.0859 2.03848C20.3591 1.98717 20.6409 1.98717 20.9141 2.03848C21.2228 2.09645 21.5143 2.24432 22.0972 2.54006L37.3083 10.2567C37.924 10.569 38.2319 10.7252 38.456 10.9473C38.6543 11.1438 38.8044 11.3767 38.8962 11.6305C39 11.9173 39 12.2389 39 12.882V28.118C39 28.7611 39 29.0827 38.8962 29.3695C38.8044 29.6233 38.6543 29.8562 38.456 30.0527C38.2319 30.2748 37.924 30.431 37.3083 30.7433L22.0972 38.4599C21.5143 38.7557 21.2228 38.9035 20.9141 38.9615C20.6409 39.0128 20.3591 39.0128 20.0859 38.9615C19.7772 38.9035 19.4857 38.7557 18.9028 38.4599L3.69166 30.7433C3.07598 30.431 2.76813 30.2748 2.54397 30.0527C2.34566 29.8562 2.19558 29.6233 2.10377 29.3695C2 29.0827 2 28.7611 2 28.118V12.882C2 12.2389 2 11.9173 2.10377 11.6305C2.19558 11.3767 2.34566 11.1438 2.54397 10.9473C2.76813 10.7252 3.07598 10.569 3.69166 10.2567L18.9028 2.54006Z" stroke="#41A8BB" stroke-width="3" stroke-linecap="round" stroke-linejoin="round"/>
<path fill-rule="evenodd" clip-rule="evenodd" d="M20.493 14.9964C18.4381 12.8027 15.0114 12.2126 12.4368 14.2214C9.86213 16.2301 9.49966 19.5887 11.5215 21.9645C12.8166 23.4861 16.1331 26.308 18.3504 28.1402C19.0872 28.749 19.4556 29.0535 19.8969 29.1755C20.2762 29.2805 20.7097 29.2805 21.0891 29.1755C21.5303 29.0535 21.8987 28.749 22.6356 28.1402C24.8528 26.308 28.1694 23.4861 29.4644 21.9645C31.4863 19.5887 31.168 16.209 28.5492 14.2214C25.9303 12.2337 22.5479 12.8027 20.493 14.9964Z" stroke="#41A8BB" stroke-width="3" stroke-linecap="round" stroke-linejoin="round"/>
</svg>
