<svg width="41" height="41" viewBox="0 0 41 41" fill="none" xmlns="http://www.w3.org/2000/svg">
<path d="M14.95 18.7547L18.65 22.9434L26.975 13.5189M20.4873 6.47312C16.7885 1.57778 10.6205 0.260948 5.98619 4.74362C1.35184 9.22628 0.69939 16.7211 4.33877 22.0227C7.08767 26.0272 14.8969 34.0664 18.5538 37.7606C19.2261 38.4398 19.5622 38.7793 19.9558 38.913C20.2975 39.029 20.6772 39.029 21.0189 38.913C21.4125 38.7793 21.7486 38.4398 22.4208 37.7606C26.0778 34.0664 33.887 26.0272 36.6359 22.0227C40.2753 16.7211 39.7025 9.17913 34.9885 4.74362C30.2745 0.308101 24.1861 1.57778 20.4873 6.47312Z" stroke="#41A8BB" stroke-width="3" stroke-linecap="round" stroke-linejoin="round"/>
</svg>
