<svg width="41" height="41" viewBox="0 0 41 41" fill="none" xmlns="http://www.w3.org/2000/svg">
<path d="M13.1 26.05H27.9M26.05 14.95H26.0685M14.95 14.95H14.9685M39 20.5C39 30.7173 30.7173 39 20.5 39C10.2827 39 2 30.7173 2 20.5C2 10.2827 10.2827 2 20.5 2C30.7173 2 39 10.2827 39 20.5ZM26.975 14.95C26.975 15.4609 26.5609 15.875 26.05 15.875C25.5391 15.875 25.125 15.4609 25.125 14.95C25.125 14.4391 25.5391 14.025 26.05 14.025C26.5609 14.025 26.975 14.4391 26.975 14.95ZM15.875 14.95C15.875 15.4609 15.4609 15.875 14.95 15.875C14.4391 15.875 14.025 15.4609 14.025 14.95C14.025 14.4391 14.4391 14.025 14.95 14.025C15.4609 14.025 15.875 14.4391 15.875 14.95Z" stroke="#41A8BB" stroke-width="3" stroke-linecap="round" stroke-linejoin="round"/>
</svg>
